<svg width="16" height="16" viewBox="0 0 16 16" fill="none" xmlns="http://www.w3.org/2000/svg">
<path d="M8.05213 1.99866C8.05782 1.99867 8.06395 1.99868 8.07053 1.9987L8.14133 1.99892C8.96312 2.00194 13.1282 2.03213 14.2512 2.33404C14.9397 2.51868 15.4818 3.06284 15.6657 3.75357C15.767 4.13307 15.8376 4.63747 15.8868 5.15622L15.8964 5.26013C15.9041 5.34683 15.9113 5.43372 15.9179 5.52029L15.9256 5.62399C15.9913 6.5381 15.999 7.3935 15.9999 7.58065L16 7.6059C16 7.60797 16 7.61135 16 7.61135V7.62552C16 7.62552 16 7.6289 16 7.63097L15.9999 7.65621C15.999 7.85044 15.9907 8.76433 15.9179 9.71664L15.9097 9.82064L15.901 9.92476C15.8514 10.4973 15.7772 11.0659 15.6657 11.4833C15.4818 12.174 14.9397 12.7183 14.2512 12.9028C13.0908 13.2149 8.68207 13.2368 8.07053 13.2383L8.02344 13.2384C8.01958 13.2384 8.01618 13.2384 8.01326 13.2384L7.99405 13.2384C7.99405 13.2384 7.98963 13.2384 7.98671 13.2384L7.92944 13.2383C7.62039 13.2375 6.34154 13.2316 5.00227 13.1856L4.83104 13.1795C4.80247 13.1784 4.77389 13.1774 4.74531 13.1763L4.57389 13.1695L4.40286 13.1622C3.29335 13.1135 2.2355 13.0337 1.74887 12.9028C1.06045 12.7183 0.518348 12.174 0.334356 11.4833C0.22289 11.0659 0.148579 10.4973 0.0990381 9.92476L0.0903009 9.82064L0.0820931 9.71664C0.0118799 8.79896 0.00168768 7.91695 0.00020816 7.68023L3.13618e-05 7.64634C1.89549e-05 7.64329 8.61588e-06 7.64048 0 7.63791V7.59895C8.61588e-06 7.59639 1.89549e-05 7.59358 3.13618e-05 7.59053L0.00020816 7.55664C0.0015481 7.34226 0.0100344 6.59862 0.0637809 5.77854L0.0707377 5.67567C0.0719374 5.65847 0.0731574 5.64124 0.0743981 5.62399L0.0820931 5.52029C0.088717 5.43372 0.0958751 5.34683 0.10361 5.26013L0.113173 5.15622C0.162397 4.63747 0.233023 4.13307 0.334356 3.75357C0.518348 3.06284 1.06045 2.51868 1.74887 2.33404C2.2355 2.20321 3.29335 2.12341 4.40286 2.07473L4.57389 2.06748L4.74531 2.06071C4.77389 2.05962 4.80247 2.05855 4.83104 2.0575L5.00227 2.05141C6.25606 2.00837 7.45689 2.0004 7.85864 1.99892L7.92944 1.9987C7.93601 1.99868 7.94215 1.99867 7.94784 1.99866H8.05213ZM6.40003 5.20985V10.027L10.5568 7.61857L6.40003 5.20985Z" fill="black"/>
</svg>
